<svg id="Layer_1" data-name="Layer 1" xmlns="http://www.w3.org/2000/svg" xmlns:xlink="http://www.w3.org/1999/xlink" viewBox="0 0 717.6 675.4"><defs><style>.cls-1{fill:url(#linear-gradient);}.cls-2{fill:url(#linear-gradient-2);}.cls-3{fill:url(#linear-gradient-3);}.cls-4{fill:url(#linear-gradient-4);}.cls-5{fill:url(#linear-gradient-5);}.cls-6{fill:url(#linear-gradient-6);}.cls-7{fill:url(#linear-gradient-7);}.cls-8{fill:url(#linear-gradient-8);}.cls-9{fill:url(#linear-gradient-9);}.cls-10,.cls-11{fill:none;}.cls-10{clip-rule:evenodd;}.cls-12{clip-path:url(#clip-path);}.cls-13{fill:url(#linear-gradient-10);}.cls-14{mask:url(#mask);}.cls-15{fill:#cb0680;}.cls-15,.cls-21,.cls-29{fill-rule:evenodd;}.cls-16{clip-path:url(#clip-path-2);}.cls-17{fill:url(#linear-gradient-11);}.cls-18{mask:url(#mask-2);}.cls-19{fill:#d93c78;}.cls-20{mask:url(#mask-3);}.cls-21{fill:#fdf063;}.cls-22{clip-path:url(#clip-path-3);}.cls-23{fill:url(#linear-gradient-12);}.cls-24{mask:url(#mask-4);}.cls-25{fill:#ff98ff;}.cls-26{clip-path:url(#clip-path-4);}.cls-27{fill:url(#linear-gradient-13);}.cls-28{mask:url(#mask-5);}.cls-29{fill:#020c6a;}.cls-30{fill:#fff;}.cls-31{clip-path:url(#clip-path-5);}.cls-32{fill:url(#linear-gradient-14);}.cls-33{mask:url(#mask-6);}.cls-34{clip-path:url(#clip-path-6);}.cls-35{fill:url(#linear-gradient-15);}.cls-36{mask:url(#mask-7);}.cls-37{mask:url(#mask-8);}.cls-38{mask:url(#mask-9);}</style><linearGradient id="linear-gradient" x1="-1228.4" y1="962.38" x2="-1296.95" y2="744.58" gradientTransform="translate(67.1 -97.8)" gradientUnits="userSpaceOnUse"><stop offset="0" stop-color="#fff"/><stop offset="1"/></linearGradient><linearGradient id="linear-gradient-2" x1="-1072.99" y1="820.45" x2="-1212.22" y2="944.22" gradientTransform="translate(67.7 -89.7)" xlink:href="#linear-gradient"/><linearGradient id="linear-gradient-3" x1="-660.01" y1="516.12" x2="-979.51" y2="837.86" gradientTransform="translate(96.3 -88.1)" xlink:href="#linear-gradient"/><linearGradient id="linear-gradient-4" x1="-225.49" y1="338.08" x2="-1008.08" y2="1012.6" gradientTransform="translate(100 -78.3)" xlink:href="#linear-gradient"/><linearGradient id="linear-gradient-5" x1="-973.25" y1="441.57" x2="-1195.3" y2="1010.96" gradientTransform="translate(67.5 -87.6)" xlink:href="#linear-gradient"/><linearGradient id="linear-gradient-6" x1="-928.16" y1="1251.98" x2="-928.16" y2="814.73" gradientTransform="translate(96.8 -92.6)" xlink:href="#linear-gradient"/><linearGradient id="linear-gradient-7" x1="-1074.5" y1="831.07" x2="-1341.61" y2="952.82" gradientTransform="translate(67.9 -91.1)" xlink:href="#linear-gradient"/><linearGradient id="linear-gradient-8" x1="-1398.51" y1="494.19" x2="-1224.84" y2="792.81" gradientTransform="translate(68.6 -95.8)" xlink:href="#linear-gradient"/><linearGradient id="linear-gradient-9" x1="-1105.14" y1="1301.56" x2="-1280.93" y2="971.91" gradientTransform="translate(66.1 -74.4)" xlink:href="#linear-gradient"/><clipPath id="clip-path" transform="translate(1420.8 -369.8)"><path class="cls-10" d="M-1199.9,669.4s-198.6,91-214.2,152.6c0,0,0,20.4,32.1,20.4,0,0,83.2-78.1,208.5-112.8s10.4-59.8,10.4-59.8l-16.5-17.3Z"/></clipPath><linearGradient id="linear-gradient-10" x1="86.81" y1="509.89" x2="249.04" y2="301.18" gradientUnits="userSpaceOnUse"><stop offset="0" stop-color="#ff057e"/><stop offset="1" stop-color="#ffcb00"/></linearGradient><mask id="mask" x="147.13" y="282.64" width="127.91" height="116.76" maskUnits="userSpaceOnUse"><g transform="translate(1420.8 -369.8)"><rect class="cls-1" x="-1273.7" y="652.5" width="127.9" height="116.76"/></g></mask><clipPath id="clip-path-2" transform="translate(1420.8 -369.8)"><path class="cls-10" d="M-1028,482.8l-34-10.8c8.5-39.4,41.5-50.6,41.5-50.6-4.7,11.3-6.7,39.1-7.5,61.4m87,27.6-65.8-20.9c.5-22.7,2.6-48.6,8.9-62.1C-997.9,427.4-954.5,431.7-941,510.4Zm80.8,25.6-51.7-16.3c-15.7-94.2-71.4-112.9-71.4-112.9C-919.2,372.8-857.8,520.4-860.2,536Zm120,124.8-10.7-90.1L-837,543.4c-28.2-148.3-115.4-160.5-115.4-160.5-44.1-13.1-56,18.5-56,18.5-57.3-5.9-72.2,59.6-72.2,59.6l-.5,5-28.7-9.1-47.7,43.5h-57.2l-51.6,364.8S-1014,796.2-740.2,660.8Z"/></clipPath><linearGradient id="linear-gradient-11" x1="178.75" y1="459.07" x2="603.5" y2="83.05" xlink:href="#linear-gradient-10"/><mask id="mask-2" x="154.47" y="363.55" width="367.87" height="131.79" maskUnits="userSpaceOnUse"><g transform="translate(1420.8 -369.8)"><rect class="cls-2" x="-1266.3" y="733.4" width="367.9" height="131.79"/></g></mask><mask id="mask-3" x="491.45" y="121.15" width="215.76" height="393.1" maskUnits="userSpaceOnUse"><g transform="translate(1420.8 -369.8)"><rect class="cls-3" x="-929.4" y="491" width="215.8" height="393.1"/></g></mask><clipPath id="clip-path-3" transform="translate(1420.8 -369.8)"><path class="cls-11" d="M-1285,997.6l199.1,47.7,382.7-74-37-310.5c-95.2,69.8-328,198.2-536.5,277.6Z"/></clipPath><linearGradient id="linear-gradient-12" x1="156.44" y1="825.82" x2="718.28" y2="113.55" gradientUnits="userSpaceOnUse"><stop offset="0" stop-color="#0131b8"/><stop offset="0.5" stop-color="#5c00d3"/><stop offset="1" stop-color="#fc7bfc"/></linearGradient><mask id="mask-4" x="535.69" y="302.43" width="181.9" height="327.72" maskUnits="userSpaceOnUse"><g transform="translate(1420.8 -369.8)"><rect class="cls-4" x="-885.1" y="672.3" width="181.9" height="327.72"/></g></mask><clipPath id="clip-path-4" transform="translate(1420.8 -369.8)"><path class="cls-11" d="M-1098.7,730.3l-11.1-273.4-47.7,43.5h-57.2l-38.2,270.1ZM-1285,997.6l199.1,47.7-7.5-185.6c-60.5,28.6-122.9,55.7-183.3,78.6Z"/></clipPath><linearGradient id="linear-gradient-13" x1="480.95" y1="697.56" x2="174.66" y2="303.14" xlink:href="#linear-gradient-12"/><mask id="mask-5" x="152.57" y="364.66" width="367.58" height="155.5" maskUnits="userSpaceOnUse"><g transform="translate(1420.8 -369.8)"><rect class="cls-5" x="-1268.2" y="734.5" width="367.6" height="155.5"/></g></mask><clipPath id="clip-path-5" transform="translate(1420.8 -369.8)"><path class="cls-11" d="M-1420.8,856.5c113.9,32.5,432.9-89.7,520.2-122-73.2,31.9-422.9,183.2-483.6,157.3Z"/></clipPath><linearGradient id="linear-gradient-14" x1="307.87" y1="661.58" x2="233.3" y2="341.25" xlink:href="#linear-gradient-12"/><mask id="mask-6" x="498.35" y="290.76" width="182.25" height="170.95" maskUnits="userSpaceOnUse"><g transform="translate(1420.8 -369.8)"><rect class="cls-6" x="-922.4" y="660.6" width="182.2" height="170.95"/></g></mask><clipPath id="clip-path-6" transform="translate(1420.8 -369.8)"><path class="cls-10" d="M-1095.7,803l-14.1-346.1-47.7,43.5h-57.2q-13.3,94.6-26.8,189.4c-3.2,22.8-6.5,45.6-9.7,68.4-4.3,30.1-8.5,60.2-12.8,90.2,54.2-11.1,113.1-27.8,168.3-45.4"/></clipPath><linearGradient id="linear-gradient-15" x1="388.66" y1="536.68" x2="153.05" y2="131.76" xlink:href="#linear-gradient-10"/><mask id="mask-7" x="156.84" y="419.57" width="168.21" height="59.02" maskUnits="userSpaceOnUse"><g transform="translate(1420.8 -369.8)"><rect class="cls-7" x="-1264" y="789.4" width="168.2" height="59.02"/></g></mask><mask id="mask-8" x="164.72" y="119.06" width="134.25" height="303.81" maskUnits="userSpaceOnUse"><g transform="translate(1420.8 -369.8)"><rect class="cls-8" x="-1256.1" y="488.9" width="134.3" height="303.81"/></g></mask><mask id="mask-9" x="135.75" y="489.88" width="199.11" height="185.55" maskUnits="userSpaceOnUse"><g transform="translate(1420.8 -369.8)"><rect class="cls-9" x="-1285" y="859.7" width="199.1" height="185.55"/></g></mask></defs><g class="cls-12"><rect class="cls-13" x="6.7" y="282.6" width="365.9" height="189.89"/></g><g class="cls-14"><path class="cls-15" d="M-1199.9,669.4s-27.2,12.4-62.2,31.2l-11.6,68.6a527.1,527.1,0,0,1,100.2-39.6c5.9-1.6,11.2-3.2,16.1-4.8l11.6-36.3-10.8-17.1-6.5-1.6-16.5-17.3Z" transform="translate(1420.8 -369.8)"/></g><g class="cls-16"><rect class="cls-17" x="154.5" width="526.2" height="495.34"/></g><g class="cls-18"><path class="cls-19" d="M-1260,820.5l-6.3,44.7s162.3-44.4,367.8-131.8c-211.6,65.1-313.2,83.4-361.5,87.1" transform="translate(1420.8 -369.8)"/></g><g class="cls-20"><path class="cls-21" d="M-713.6,884.1l-37.3-313.4L-837,543.4A334.1,334.1,0,0,0-851.1,491c-6,5.1-11.7,10.6-17.2,16.3,5.7,14.1,8.6,25.1,8.1,28.7l-25.4-8a222.4,222.4,0,0,0-43.8,132.8c0,120.8,96,219.2,215.8,223.3" transform="translate(1420.8 -369.8)"/></g><g class="cls-22"><rect class="cls-23" x="135.8" y="291" width="581.8" height="384.42"/></g><g class="cls-24"><path class="cls-25" d="M-851.4,1000l148.2-28.7-35.6-299C-824.2,703.7-885.1,785.7-885.1,882a222.1,222.1,0,0,0,33.7,118" transform="translate(1420.8 -369.8)"/></g><g class="cls-26"><rect class="cls-27" x="135.8" y="87" width="199.1" height="588.4"/></g><g class="cls-28"><path class="cls-29" d="M-1268.2,862.8a348.2,348.2,0,0,0,23.8,27.2c260.9-92.9,343.8-155.5,343.8-155.5l-70.1,28.1-139,50.1L-1215,849.1Z" transform="translate(1420.8 -369.8)"/></g><polygon class="cls-30" points="455.3 290.4 507.2 347.8 647.8 306.3 523 361.8 498.4 435.1 547.1 407.4 538.6 380.4 588.9 433 680.6 290.8 455.3 290.4"/><g class="cls-31"><rect class="cls-32" y="364.7" width="520.2" height="183.19"/></g><g class="cls-33"><path class="cls-29" d="M-831.9,802.9l-50.3-52.7,8.5,27L-922.4,805l52.1-10.5,42.2,37c28.6-47.3,47.3-76.3,68.3-125.1l19.6-45.8-30,46.5Z" transform="translate(1420.8 -369.8)"/></g><g class="cls-34"><rect class="cls-35" x="156.8" y="87" width="168.2" height="391.55"/></g><g class="cls-36"><path class="cls-19" d="M-1095.7,803l-.6-13.6c-83.8,21-133.9,28.9-163.7,31.1l-4,27.9c54.2-11.1,113.1-27.8,168.3-45.4" transform="translate(1420.8 -369.8)"/></g><g class="cls-37"><path class="cls-21" d="M-1144.9,488.9l-12.6,11.5h-57.2q-13.3,94.6-26.8,189.4c-3.2,22.8-6.5,45.6-9.7,68.4l-4.9,34.5c79-34.4,134.3-113.2,134.3-204.9a221.8,221.8,0,0,0-23.1-98.9" transform="translate(1420.8 -369.8)"/></g><g class="cls-38"><path class="cls-29" d="M-1276.7,938.3l-8.3,59.3,199.1,47.7-7.5-185.6c-60.5,28.6-122.9,55.7-183.3,78.6" transform="translate(1420.8 -369.8)"/></g></svg>